<?xml version="1.0" standalone="no"?>
<!DOCTYPE svg PUBLIC "-//W3C//DTD SVG 20010904//EN"
 "http://www.w3.org/TR/2001/REC-SVG-20010904/DTD/svg10.dtd">
<svg version="1.0" xmlns="http://www.w3.org/2000/svg"
 width="300.000000pt" height="300.000000pt" viewBox="0 0 300.000000 300.000000"
 preserveAspectRatio="xMidYMid meet">
<metadata>
Created by potrace 1.11, written by Peter Selinger 2001-2013
</metadata>
<g transform="translate(0.000000,300.000000) scale(0.100000,-0.100000)"
fill="#000000" stroke="none">
<path d="M1711 2124 c-128 -86 -236 -153 -238 -150 -3 3 1 32 9 65 l15 59 -30
47 c-19 30 -35 44 -44 40 -8 -3 -75 -46 -149 -97 -127 -87 -136 -91 -157 -78
-18 12 -95 16 -444 18 -233 2 -423 0 -423 -4 0 -3 16 -28 35 -54 24 -32 62
-64 122 -101 49 -29 111 -68 140 -86 l52 -33 -30 -87 c-16 -48 -29 -90 -29
-95 0 -4 22 -8 48 -8 l49 0 -61 -219 c-34 -121 -64 -222 -67 -226 -4 -3 -102
8 -219 25 -118 16 -215 28 -217 26 -2 -2 16 -8 39 -14 24 -6 360 -106 748
-222 387 -115 715 -210 727 -210 12 0 197 36 411 80 214 44 397 81 408 82 10
1 -8 4 -41 7 l-60 6 -6 85 c-4 47 -10 172 -14 278 l-7 192 58 0 58 0 -34 35
c-19 20 -45 38 -57 41 -13 4 -23 9 -23 13 1 3 160 114 355 245 195 132 355
241 355 243 0 3 -14 24 -30 49 l-31 44 -412 0 -412 0 -68 -46 c-38 -25 -71
-44 -73 -41 -3 2 9 41 25 85 l29 81 -29 41 c-16 22 -32 40 -37 39 -4 0 -112
-70 -241 -155z m60 -120 c-27 -76 -54 -151 -59 -166 -9 -22 24 -3 201 113
l212 139 322 0 c178 0 323 -3 323 -7 0 -5 -30 -27 -65 -50 l-65 -43 -237 0
c-221 0 -240 -2 -263 -20 l-25 -20 150 0 150 0 -60 -40 -60 -40 -150 0 -150 0
-104 -70 -105 -69 85 -39 c46 -21 115 -51 152 -68 l68 -29 -138 -3 c-138 -3
-138 -3 -206 30 -74 35 -91 33 -114 -13 -11 -22 -17 -24 -85 -20 -40 1 -74 4
-75 5 -1 1 17 56 41 121 23 66 58 162 76 213 l33 94 96 64 c52 35 96 62 98 60
2 -2 -19 -66 -46 -142z m-476 -70 c-20 -71 -38 -137 -41 -146 -5 -16 2 -18 44
-18 55 0 66 9 77 58 6 27 22 43 97 93 49 33 92 59 94 56 3 -3 -14 -56 -37
-118 -81 -223 -90 -229 -317 -229 -84 0 -152 3 -152 6 0 3 23 81 51 173 l51
166 82 55 c44 30 82 50 84 44 2 -6 -13 -69 -33 -140z m-194 39 c6 -6 11 -22
11 -35 0 -41 -73 -262 -93 -283 -18 -18 -35 -20 -214 -23 -165 -3 -195 -1
-195 11 0 8 19 67 41 131 l42 116 74 0 c85 0 81 11 38 -107 l-23 -63 42 0 c69
0 87 16 113 99 13 41 21 81 19 88 -4 10 -50 13 -212 13 l-206 0 -54 32 c-30
18 -54 35 -54 38 0 3 148 3 330 0 233 -4 332 -8 341 -17z m1259 -168 c0 -2
-24 -20 -52 -40 l-53 -35 -190 0 -190 0 60 40 60 40 183 0 c100 0 182 -2 182
-5z m-1234 -321 l91 -6 -34 -111 c-19 -62 -52 -175 -74 -252 -22 -77 -42 -145
-44 -151 -2 -8 -74 4 -222 37 -120 27 -223 51 -230 54 -9 3 -8 15 3 49 13 39
19 45 37 41 12 -2 56 -9 97 -15 41 -6 85 -13 98 -16 17 -3 25 2 34 21 16 36 6
40 -113 56 -54 6 -102 15 -108 18 -6 4 -2 33 12 79 l22 73 90 -6 c50 -3 109
-8 133 -11 41 -5 42 -5 42 25 l0 31 -112 1 c-62 1 -116 1 -120 0 -5 0 -8 22
-8 50 l0 51 158 -6 c86 -4 198 -9 248 -12z m647 -41 c4 -2 4 -50 1 -106 l-7
-102 -119 -202 c-66 -112 -126 -203 -134 -203 -14 0 -365 101 -373 107 -9 7
53 183 63 180 109 -40 240 -77 246 -71 5 5 10 18 12 28 3 17 -14 25 -122 59
-69 22 -126 41 -127 42 -2 0 19 66 45 144 l47 143 230 -7 c127 -4 233 -9 238
-12z m436 -90 c0 -124 -15 -432 -20 -437 -6 -6 -590 -98 -593 -94 -2 1 44 89
103 193 l106 190 3 117 4 117 67 4 c36 2 126 4 199 5 l132 2 -1 -97z"/>
<path d="M1462 1221 c-15 -49 -15 -48 8 -61 18 -10 22 -6 40 35 26 61 25 65
-8 65 -25 0 -31 -6 -40 -39z"/>
<path d="M1927 1105 l-46 -105 38 0 38 0 27 92 c16 50 30 98 33 105 3 9 -3 13
-20 13 -21 0 -30 -12 -70 -105z"/>
</g>
</svg>
